<?xml version="1.0" encoding="utf-8"?>
<!-- Generator: Adobe Illustrator 26.2.1, SVG Export Plug-In . SVG Version: 6.00 Build 0)  -->
<svg version="1.1" id="Layer_1" xmlns="http://www.w3.org/2000/svg" xmlns:xlink="http://www.w3.org/1999/xlink" x="0px" y="0px"
	 viewBox="0 0 1080 1080" style="enable-background:new 0 0 1080 1080;" xml:space="preserve">
<style type="text/css">
	.st0{fill:#FFFFFF;}
	.st1{clip-path:url(#SVGID_00000003074513341715404860000016795670477989099935_);}
	.st2{clip-path:url(#SVGID_00000168812230368210850620000018099973635557366434_);}
	.st3{clip-path:url(#SVGID_00000075861364556851234210000011263951470005995168_);}
	.st4{clip-path:url(#SVGID_00000140699026007449399750000014420379636240659076_);}
</style>
<g>
	<g>
		<g>
			<path class="st0" d="M496.86,336.77v38.67H446.9v-42.08c0-85.15-32.93-149.86-120.35-149.86c-87.42,0-120.35,64.71-120.35,149.86
				v413.27c0,85.15,32.93,148.73,120.35,148.73c87.42,0,120.35-63.58,120.35-148.73V652.4h49.95v90.83
				c0,114.67-49.95,200.96-171.44,200.96S153.98,857.9,153.98,743.23V336.77c0-114.67,49.96-200.96,171.44-200.96
				S496.86,222.1,496.86,336.77z"/>
		</g>
		<path class="st0" d="M806.8,513.91c80.63-17.08,104.44-70.45,104.44-156.75v-45.4c0-110.1-43.1-169.14-162.32-169.14H582v350.22
			h-85.14v-58.68H449.5v58.68h-57.26v-58.68h-48.15v58.68h-57.62v48.06h57.62v58.77h48.15V540.9h57.26v58.77h47.35V540.9H582v396.51
			h170.29c121.52,0,173.74-69.3,173.74-184.01V684.2C926.02,594.54,893.1,530.9,806.8,513.91z M634.21,190.33h113.56
			c85.14,0,111.25,43.1,111.25,126.03v51.07c0,101.08-43.1,126.03-136.21,126.03h-88.6V190.33z M873.8,752.35
			c0,88.51-34.08,137.36-121.52,137.36H634.21V541.17h98.77c94.26,0,140.81,36.29,140.81,139.66V752.35z"/>
	</g>
</g>
</svg>
